<?xml version="1.0" ?><svg id="Layer_2" style="enable-background:new 0 0 32 32;" version="1.1" viewBox="0 0 32 32" xml:space="preserve" xmlns="http://www.w3.org/2000/svg" xmlns:xlink="http://www.w3.org/1999/xlink"><g><path d="M16,0.5C7.45001,0.5,0.5,7.45001,0.5,16S7.45001,31.5,16,31.5S31.5,24.54999,31.5,16S24.54999,0.5,16,0.5z M24.21997,11.13   c-0.56995-0.57001-1.48999-0.59003-2.07996-0.04004l-7.38,6.86005l-3.73999-3.74005C10.45001,13.64001,9.53003,13.62,8.94,14.16998   l-5.09003,4.72003C3.63,17.95996,3.5,17,3.5,16C3.5,9.10999,9.10999,3.5,16,3.5c6.67999,0,12.14001,5.26996,12.46997,11.88   L24.21997,11.13z"/></g></svg>